<svg width="35" height="35" viewBox="0 0 35 35" fill="none" xmlns="http://www.w3.org/2000/svg">
<path d="M13.2434 18.5526C10.2193 16.2915 8.06415 13.8045 6.88739 12.4064C6.52313 11.9736 6.40376 11.6568 6.332 11.0989C6.08625 9.18848 5.96338 8.23327 6.52355 7.61663C7.08373 7 8.07436 7 10.0556 7H24.0694C26.0507 7 27.0413 7 27.6014 7.61663C28.1616 8.23327 28.0388 9.18848 27.793 11.0989C27.7212 11.6568 27.6019 11.9736 27.2375 12.4064C26.0592 13.8063 23.8998 16.2977 20.8695 18.5616C20.5953 18.7665 20.4146 19.1002 20.3811 19.4705C20.0809 22.7889 19.804 24.6065 19.6317 25.526C19.3537 27.0104 17.2487 27.9035 16.1219 28.7004C15.4512 29.1747 14.6372 28.6101 14.5503 27.8758C14.3845 26.4762 14.0724 23.6328 13.7317 19.4705C13.7011 19.0968 13.5198 18.7592 13.2434 18.5526Z" stroke="white" stroke-width="3" stroke-linecap="round" stroke-linejoin="round"/>
</svg>
