<svg width="60" height="60" viewBox="0 0 60 60" fill="none" xmlns="http://www.w3.org/2000/svg">
<path fill-rule="evenodd" clip-rule="evenodd" d="M14.0625 3.75H22.5C27.6777 3.75 31.875 7.94733 31.875 13.125V17.8125C31.875 20.4013 33.9737 22.5 36.5625 22.5H41.25C46.4277 22.5 50.625 26.6973 50.625 31.875V51.5625C50.625 54.1513 48.5263 56.25 45.9375 56.25H14.0625C11.4737 56.25 9.375 54.1513 9.375 51.5625V8.4375C9.375 5.84866 11.4737 3.75 14.0625 3.75ZM31.3258 28.6742C30.9742 28.3225 30.4973 28.125 30 28.125C29.5027 28.125 29.0258 28.3225 28.6742 28.6742L21.1742 36.1742C20.4419 36.9064 20.4419 38.0936 21.1742 38.8258C21.9064 39.5581 23.0936 39.5581 23.8258 38.8258L28.125 34.5266L28.125 45C28.125 46.0355 28.9645 46.875 30 46.875C31.0355 46.875 31.875 46.0355 31.875 45L31.875 34.5267L36.1742 38.8258C36.9064 39.5581 38.0936 39.5581 38.8258 38.8258C39.5581 38.0936 39.5581 36.9064 38.8258 36.1742L31.3258 28.6742Z" fill="white"/>
<path d="M35.625 13.125C35.625 9.84236 34.4199 6.84119 32.428 4.53976C40.9253 6.75944 47.6156 13.4497 49.8352 21.947C47.5338 19.9551 44.5326 18.75 41.25 18.75H36.5625C36.0447 18.75 35.625 18.3303 35.625 17.8125V13.125Z" fill="white"/>
</svg>
